{
  "accessors": [
    {
      "bufferView": 0,
      "componentType": 5125,
      "count": 56028,
      "type": "SCALAR"
    },
    {
      "bufferView": 1,
      "componentType": 5126,
      "count": 11798,
      "max": [
        0.07793327480057838,
        0.07401751085167481,
        0.015580738628680727
      ],
      "min": [
        -0.07793327480057839,
        -0.07401751085167478,
        -0.015580738628680727
      ],
      "type": "VEC3"
    },
    {
      "bufferView": 2,
      "componentType": 5126,
      "count": 11798,
      "max": [
        0.9999967768897032,
        0.9999999985923043,
        0.9999947575146835
      ],
      "min": [
        -0.9999999999999973,
        -0.9999962286446256,
        -1.0
      ],
      "type": "VEC3"
    },
    {
      "bufferView": 3,
      "componentType": 5126,
      "count": 11798,
      "max": [
        0.9998127317927443,
        1.0
      ],
      "min": [
        0.0,
        0.0
      ],
      "type": "VEC2"
    }
  ],
  "asset": {
    "generator": "Adobe Illustrator",
    "version": "2.0"
  },
  "bufferViews": [
    {
      "buffer": 0,
      "byteLength": 224112,
      "target": 34963
    },
    {
      "buffer": 0,
      "byteLength": 141576,
      "byteOffset": 224112,
      "target": 34962
    },
    {
      "buffer": 0,
      "byteLength": 141576,
      "byteOffset": 365688,
      "target": 34962
    },
    {
      "buffer": 0,
      "byteLength": 94384,
      "byteOffset": 507264,
      "target": 34962
    }
  ],
  "buffers": [
    {
      "byteLength": 601648,
      "uri": "data:application/octet-stream;base64,"
    }
  ],
  "images": [
    {
      "name": "BaseColor",
      "uri": "data:image/png;base64,"
    }
  ],
  "materials": [
    {
      "doubleSided": true,
      "pbrMetallicRoughness": {
        "baseColorFactor": [1.0, 1.0, 1.0, 1.0],
        "metallicFactor": 1.0,
        "roughnessFactor": 0.02
      }
    }
  ],
  "meshes": [
    {
      "primitives": [
        {
          "attributes": {
            "NORMAL": 2,
            "POSITION": 1,
            "TEXCOORD_0": 3
          },
          "indices": 0,
          "material": 0,
          "mode": 4
        }
      ]
    }
  ],
  "nodes": [
    {
      "mesh": 0
    }
  ],
  "samplers": [
    {
      "magFilter": 9729,
      "minFilter": 9729,
      "wrapS": 10497,
      "wrapT": 10497
    }
  ],
  "scenes": [
    {
      "nodes": [
        0
      ]
    }
  ],
  "textures": [
    {
      "sampler": 0,
      "source": 0
    }
  ]
}
